Coordinates
version=1
nRows=26
nColumns=18
inDegrees=yes

Units are S.I. units (second, meters, Newtons, ...)
If the header above contains a line with 'inDegrees', this indicates whether rotational values are in degrees (yes) or radians (no).

endheader
time	ground_thorax_rot_x	ground_thorax_rot_y	ground_thorax_rot_z	ground_thorax_tx	ground_thorax_ty	ground_thorax_tz	clav_prot	clav_elev	scapula_abduction	scapula_elevation	scapula_upward_rot	scapula_winging	plane_elv	shoulder_elv	axial_rot	elbow_flexion	pro_sup
      1.11000000	      1.97145335	     -2.08666813	     -8.76119948	     -0.00445456	      0.00513503	     -0.00062649	    -21.69699664	      7.98484920	    -12.41897200	      4.07329764	     17.84206581	      2.30402116	    -13.90472267	     11.01200483	     46.23275331	      0.00000000	     34.32000000
      1.12000000	      2.09928545	     -2.15017764	     -8.71107009	     -0.00445365	      0.00516722	     -0.00062178	    -21.93338663	      8.92307866	    -12.51183159	      4.45167662	     19.03393807	      1.95411319	    -13.86133208	     10.19908701	     46.43281912	      0.00000000	     34.32000000
      1.13000000	      1.61604016	     -2.06068894	     -8.55519965	     -0.00452187	      0.00542676	     -0.00115523	    -21.97549959	      9.11872777	    -12.49141100	      4.52104604	     19.32125680	      1.86910270	    -13.79992820	      9.79944296	     46.45301137	      0.00000000	     34.32000000
      1.14000000	      1.93171275	     -1.72413059	     -8.55608532	     -0.00460281	      0.00539595	     -0.00104082	    -22.69136169	     10.14190808	    -13.22428160	      4.83537012	     20.90276540	      1.38983957	    -13.88509461	      8.45556653	     48.85693907	      0.00000000	     34.32000000
      1.15000000	      1.62177192	     -1.54796773	     -8.44797953	     -0.00477218	      0.00578262	     -0.00146794	    -22.70351540	     10.22573185	    -13.09290011	      4.82572927	     21.18150931	      1.30015636	    -13.84856136	      8.46818917	     48.87383104	      0.00000000	     34.32000000
      1.16000000	      1.72751706	     -1.54296050	     -8.38771420	     -0.00466700	      0.00574609	     -0.00131717	    -22.93361320	     11.12645101	    -12.89288258	      5.09655931	     22.71896852	      0.84390504	    -16.74170156	      7.16601363	     53.43705889	      0.00000000	     34.32000000
      1.17000000	      1.26537062	     -1.48471267	     -8.28885185	     -0.00468331	      0.00603770	     -0.00177967	    -22.96785617	     11.44210982	    -12.86085955	      5.23851796	     23.08799411	      0.74782867	    -16.65543849	      6.80478292	     53.42798030	      0.00000000	     34.32000000
      1.18000000	      0.86007974	     -1.53808220	     -8.17140937	     -0.00476234	      0.00631851	     -0.00224976	    -23.05226294	     11.84270241	    -12.87252971	      5.40885591	     23.58670368	      0.61526958	    -16.53059226	      6.29430161	     53.43200834	      0.00000000	     34.32000000
      1.19000000	      1.35426346	     -1.60260111	     -8.22481380	     -0.00473533	      0.00612692	     -0.00184116	    -23.61238499	     13.10874808	    -13.52625902	      5.95555713	     25.06187202	      0.22298426	    -14.77152107	      5.21567615	     54.48517456	      0.00000000	     34.32000000
      1.20000000	      1.08890545	     -1.47691408	     -8.13278208	     -0.00485655	      0.00645029	     -0.00234065	    -23.61982778	     13.18329426	    -13.43249727	      5.96255078	     25.25986868	      0.16361392	    -14.72052647	      5.17844161	     54.49647707	      0.00000000	     34.32000000
      1.21000000	      0.85109887	     -1.49759927	     -8.08393781	     -0.00475071	      0.00640547	     -0.00245591	    -23.65661020	     13.52312239	    -13.38066005	      6.11170455	     25.68165359	      0.06178286	    -14.55118280	      4.68011201	     54.51451301	      0.00000000	     34.32000000
      1.22000000	      1.05404655	     -1.62470231	     -8.11360686	     -0.00472852	      0.00635135	     -0.00230042	    -23.79703720	     14.34521745	    -13.45846836	      6.50306067	     26.56650160	     -0.13365754	    -13.87324614	      3.90670551	     54.80692980	      0.00000000	     34.32000000
      1.23000000	      0.71059826	     -1.68240352	     -8.05810527	     -0.00476125	      0.00656179	     -0.00256434	    -23.76312800	     14.58249732	    -13.47238291	      6.65958669	     26.66225508	     -0.12415796	    -13.79028402	      3.43730907	     54.81485267	      0.00000000	     34.32000000
      1.24000000	      0.89334581	     -1.81468035	     -8.05743595	     -0.00474009	      0.00654074	     -0.00256486	    -23.83224147	     15.32550020	    -13.49319101	      7.03357415	     27.40056529	     -0.25951926	    -13.24129628	      2.62458744	     55.08893817	      0.00000000	     34.32000000
      1.25000000	      0.77025245	     -1.65740357	     -8.10502250	     -0.00453697	      0.00652684	     -0.00289544	    -23.80538510	     15.37752114	    -13.49106424	      7.07800895	     27.38480007	     -0.24121874	    -13.17327110	      2.46650530	     55.11618744	      0.00000000	     34.32000000
      1.26000000	      0.76357178	     -1.55468357	     -8.09226458	     -0.00435074	      0.00645576	     -0.00297583	    -23.80149354	     15.37000461	    -13.44810472	      7.06375150	     27.42258598	     -0.25560155	    -13.15590175	      2.46729839	     55.12433915	      0.00000000	     34.32000000
      1.27000000	      0.86971650	     -0.90129727	     -8.18955487	     -0.00449386	      0.00644422	     -0.00310377	    -24.24042891	     15.30932442	    -14.21205159	      6.98507282	     27.43022794	     -0.32058770	    -12.88807957	      2.48926516	     55.26098671	      0.00000000	     34.32000000
      1.28000000	      0.86928672	     -0.90083893	     -8.18933484	     -0.00449888	      0.00648705	     -0.00308709	    -24.24033856	     15.30950996	    -14.21173467	      6.98513910	     27.43056760	     -0.32066267	    -12.88795405	      2.48917095	     55.26101519	      0.00000000	     34.32000000
      1.29000000	      0.78128570	     -0.90151870	     -8.13728451	     -0.00467245	      0.00657448	     -0.00319044	    -24.20254591	     15.37203215	    -14.19570472	      7.03786873	     27.41621948	     -0.29941498	    -12.86140800	      2.34139386	     55.25549170	      0.00000000	     34.32000000
      1.30000000	      0.85108469	     -1.08296313	     -8.03349260	     -0.00462184	      0.00658186	     -0.00307156	    -24.13480753	     15.68552635	    -14.15721103	      7.24011989	     27.57029227	     -0.28641744	    -12.57003380	      2.11199476	     55.30480240	      0.00000000	     34.32000000
      1.31000000	      0.85727771	     -1.08560111	     -8.05377123	     -0.00460376	      0.00664722	     -0.00315676	    -24.12598995	     15.68852695	    -14.16396551	      7.24902363	     27.54466750	     -0.27564123	    -12.56539871	      2.07553024	     55.30253632	      0.00000000	     34.32000000
      1.32000000	      0.85726481	     -1.08330087	     -8.05318605	     -0.00462832	      0.00657670	     -0.00317014	    -24.12274112	     15.68181637	    -14.16425807	      7.24745425	     27.53130235	     -0.27175270	    -12.55566748	      2.04060731	     55.30195394	      0.00000000	     34.32000000
      1.33000000	      0.85844547	     -1.08326940	     -8.05261773	     -0.00464587	      0.00645515	     -0.00316340	    -24.12271274	     15.68110504	    -14.16412164	      7.24704180	     27.53081181	     -0.27171252	    -12.55556410	      2.04005067	     55.30193253	      0.00000000	     34.32000000
      1.34000000	      0.88321270	     -1.07726574	     -8.04254313	     -0.00471160	      0.00649113	     -0.00306185	    -24.11942087	     15.66538820	    -14.15544136	      7.23791483	     27.52084886	     -0.27082780	    -12.55128625	      2.02374345	     55.30094527	      0.00000000	     34.32000000
      1.35000000	      0.88357318	     -1.07691117	     -8.04232870	     -0.00471977	      0.00646316	     -0.00298802	    -24.11935502	     15.66508301	    -14.15513245	      7.23769083	     27.52085718	     -0.27086217	    -12.55123291	      2.02376097	     55.30091965	      0.00000000	     34.32000000
      1.36000000	      0.92649023	     -1.05593602	     -8.03388977	     -0.00470187	      0.00650571	     -0.00294476	    -24.10940812	     15.64396408	    -14.13693088	      7.22688746	     27.50300635	     -0.26737891	    -12.54897040	      1.99484897	     55.29718481	      0.00000000	     34.32000000
